<?xml version="1.0" encoding="utf-8"?>
<!-- Generator: Adobe Illustrator 22.0.1, SVG Export Plug-In . SVG Version: 6.00 Build 0)  -->
<svg version="1.1" id="Слой_1" xmlns="http://www.w3.org/2000/svg" xmlns:xlink="http://www.w3.org/1999/xlink" x="0px" y="0px"
	 viewBox="0 0 249.8 197.1" style="enable-background:new 0 0 249.8 197.1;" xml:space="preserve">
<style type="text/css">
	.st0{fill:#00FF00;}
	.st1{fill:#FFFFFF;}
</style>
<title>like</title>
<g id="Слой_2_1_">
	<g id="Objects">
		<path class="st0" d="M249.8,114.3v-67C249.7,21.2,228.5,0.1,202.4,0H47.3C21.2,0.1,0.1,21.2,0,47.3v67
			c0.1,26.1,21.2,47.3,47.3,47.3H179c14.8,16.2,33.5,28.4,54.3,35.3c1.4,0.5,3-0.2,3.5-1.6c0.3-0.7,0.2-1.4-0.1-2.1
			c-3.7-7.4-11.3-18.4-12.1-37.1C240,148,249.7,131.8,249.8,114.3z"/>
		<path id="_Контур_" class="st1" d="M167.2,67.6c0-0.1,0-0.2,0-0.2c0-14.1-10.2-27.1-25.6-27.1c-12.2,0-19.3,8.8-21.7,17l0,0
			c-2.4-8.2-9.5-17-21.7-17c-15.4,0-25.6,12.9-25.6,27.1c0,0.1,0,0.2,0,0.2c-0.1,3.1,0,34.4,47.3,59.9l0,0
			C167.3,101.9,167.3,70.6,167.2,67.6z"/>
	</g>
</g>
</svg>
