<?xml version="1.0" encoding="utf-8"?>
<!-- Generator: Adobe Illustrator 22.0.1, SVG Export Plug-In . SVG Version: 6.00 Build 0)  -->
<svg version="1.1" id="Слой_1" xmlns="http://www.w3.org/2000/svg" xmlns:xlink="http://www.w3.org/1999/xlink" x="0px" y="0px"
	 viewBox="0 0 249.8 197.1" style="enable-background:new 0 0 249.8 197.1;" xml:space="preserve">
<style type="text/css">
	.st0{fill:#FF006C;}
	.st1{fill:#FFFFFF;}
</style>
<title>cross</title>
<g id="Слой_2_1_">
	<g id="Objects">
		<path class="st0" d="M0,114.3v-67C0.1,21.2,21.2,0.1,47.3,0h155.1c26.1,0.1,47.3,21.2,47.3,47.3v67c-0.1,26.1-21.2,47.3-47.3,47.3
			H70.8C56,177.8,37.3,190,16.5,196.9c-1.4,0.5-3-0.2-3.5-1.6c-0.3-0.7-0.2-1.5,0.1-2.1c3.7-7.4,11.3-18.4,12.1-37.1
			C9.8,147.9,0,131.8,0,114.3z"/>
		<path class="st1" d="M139,83.9l26.6-26.6c3.9-3.9,3.9-10.2,0-14.1l0,0c-3.9-3.9-10.2-3.9-14.1,0l-26.7,26.6L98.3,43.2
			c-3.9-3.9-10.2-3.9-14.1,0l0,0c-3.9,3.9-3.9,10.2,0,14.1l26.6,26.6l-26.6,26.6c-3.9,3.9-3.9,10.2,0,14.1s10.2,3.9,14.1,0
			l26.6-26.6l26.6,26.6c3.9,3.9,10.2,3.9,14.1,0s3.9-10.2,0-14.1L139,83.9z"/>
	</g>
</g>
</svg>
